<svg width="256" height="256" viewBox="0 0 256 256" fill="none" xmlns="http://www.w3.org/2000/svg">
<rect width="256" height="256" fill="#F5F5F5"/>
<g clip-path="url(#clip0_0_1)">
<rect width="256" height="256" fill="#D42828"/>
<path fill-rule="evenodd" clip-rule="evenodd" d="M155.871 66.9858H61.2738V188.492H162.628C192.795 188.492 204.466 174.719 204.521 155.049C204.521 155.002 204.521 154.955 204.521 154.909C204.578 150.984 203.855 147.088 202.396 143.443C199.074 135.409 192.144 130.279 183.701 127.038C181.451 126.183 179.152 125.459 176.818 124.87C182.425 122.961 187.443 119.637 191.386 115.22C195.405 110.485 197.764 104.372 197.764 96.6873C198.141 92.0137 197.206 87.3278 195.063 83.1562C192.92 78.9846 189.656 75.4927 185.636 73.0729C180.065 69.7737 172.289 67.6879 161.741 67.1344C159.786 67.0336 157.829 66.9841 155.871 66.9858ZM103.505 140.564H149.114C154.822 140.564 159.936 140.564 160.54 147.821C160.582 148.326 160.602 148.833 160.601 149.34C160.601 155.753 157.714 157.479 153.787 157.945C152.234 158.091 150.674 158.147 149.114 158.115H103.505V140.564ZM103.505 97.3623H142.357C150.128 97.3623 155.533 97.3623 155.533 106.138C155.533 114.091 151.092 114.835 144.474 114.906C143.768 114.912 143.063 114.915 142.357 114.913H103.505V97.3623Z" fill="white"/>
</g>
<defs>
<clipPath id="clip0_0_1">
<rect width="256" height="256" fill="white"/>
</clipPath>
</defs>
</svg>
