<?xml version="1.0" standalone="no"?>
<!DOCTYPE svg PUBLIC "-//W3C//DTD SVG 20010904//EN"
 "http://www.w3.org/TR/2001/REC-SVG-20010904/DTD/svg10.dtd">
<svg version="1.0" xmlns="http://www.w3.org/2000/svg"
 width="512.000000pt" height="512.000000pt" viewBox="0 0 512.000000 512.000000"
 preserveAspectRatio="xMidYMid meet">
<metadata>
Created by potrace 1.14, written by Peter Selinger 2001-2017
</metadata>
<g transform="translate(0.000000,512.000000) scale(0.100000,-0.100000)"
fill="#000000" stroke="none">
<path d="M939 4565 c-5 0 -4 -245 0 -246 3 0 13 -2 21 -3 8 -2 42 -6 75 -10
33 -4 74 -9 90 -11 30 -4 153 -19 255 -31 30 -3 66 -7 80 -8 24 -2 25 -5 29
-77 5 -98 6 -2981 1 -3171 -4 -141 -5 -148 -24 -149 -12 0 -30 -2 -41 -3 -11
-2 -49 -6 -85 -10 -36 -4 -72 -9 -80 -11 -8 -2 -42 -7 -75 -10 -33 -3 -69 -7
-80 -9 -11 -2 -51 -7 -90 -11 -38 -4 -72 -9 -75 -11 -2 -3 -5 -59 -6 -125 l-1
-120 976 4 c537 2 990 6 1006 10 17 3 53 8 81 11 286 31 593 147 796 303 168
129 297 315 356 519 80 269 30 555 -134 774 -134 178 -313 297 -571 380 -99
32 -309 80 -351 80 -40 0 -15 16 45 29 155 35 358 120 466 197 176 124 317
341 361 554 15 71 16 276 3 352 -32 176 -144 365 -293 492 -109 94 -111 95
-213 147 -162 84 -351 134 -581 155 -51 5 -1910 13 -1941 9z m1796 -290 c176
-20 367 -91 471 -174 50 -39 117 -128 143 -186 48 -108 66 -220 65 -395 -3
-355 -159 -580 -476 -684 -41 -13 -91 -27 -109 -30 -19 -3 -59 -10 -89 -16
-85 -17 -175 -22 -434 -24 l-238 -2 4 751 c2 413 7 756 11 762 8 13 540 11
652 -2z m-55 -1799 c459 -56 699 -185 826 -446 41 -84 52 -125 68 -247 66
-496 -193 -823 -724 -917 -145 -25 -177 -28 -476 -31 l-292 -4 -3 32 c-2 18
-6 390 -8 829 l-3 796 288 -4 c159 -2 305 -5 324 -8z"/>
</g>
</svg>
