<?xml version="1.0" standalone="no"?>
<!DOCTYPE svg PUBLIC "-//W3C//DTD SVG 20010904//EN"
 "http://www.w3.org/TR/2001/REC-SVG-20010904/DTD/svg10.dtd">
<svg version="1.0" xmlns="http://www.w3.org/2000/svg"
 width="700.000000pt" height="700.000000pt" viewBox="0 0 700.000000 700.000000"
 preserveAspectRatio="xMidYMid meet">
<metadata>
Created by potrace 1.14, written by Peter Selinger 2001-2017
</metadata>
<g transform="translate(0.000000,700.000000) scale(0.100000,-0.100000)"
fill="#000000" stroke="none">
<path d="M0 3500 l0 -3500 3500 0 3500 0 0 3500 0 3500 -3500 0 -3500 0 0
-3500z m4600 1651 c159 -24 310 -68 420 -122 88 -44 117 -65 186 -134 68 -67
90 -98 127 -176 63 -128 82 -227 74 -381 -7 -147 -27 -228 -82 -343 -73 -152
-194 -267 -381 -361 l-100 -51 90 -27 c242 -73 431 -201 537 -364 92 -141 125
-275 116 -482 -6 -163 -29 -259 -92 -386 -48 -98 -137 -204 -223 -268 -107
-78 -274 -145 -462 -183 -78 -15 -214 -17 -1607 -20 l-1523 -3 0 1660 0 1661
1418 -4 c1076 -3 1437 -7 1502 -16z"/>
<path d="M2830 4100 l0 -240 610 0 c416 0 626 4 662 11 39 9 63 22 90 48 46
47 61 102 56 208 -7 133 -55 184 -191 204 -34 5 -324 9 -644 9 l-583 0 0 -240z"/>
<path d="M2830 2920 l0 -241 713 3 712 3 41 24 c24 13 52 41 65 65 21 36 24
54 24 141 0 160 -42 215 -180 234 -41 6 -337 11 -722 11 l-653 0 0 -240z"/>
</g>
</svg>
